<?xml version="1.0" standalone="no"?>
<!DOCTYPE svg PUBLIC "-//W3C//DTD SVG 20010904//EN"
 "http://www.w3.org/TR/2001/REC-SVG-20010904/DTD/svg10.dtd">
<svg version="1.0" xmlns="http://www.w3.org/2000/svg"
 width="300.000000pt" height="300.000000pt" viewBox="0 0 300.000000 300.000000"
 preserveAspectRatio="xMidYMid meet">
<metadata>
Created by potrace 1.14, written by Peter Selinger 2001-2017
</metadata>
<g transform="translate(0.000000,300.000000) scale(0.100000,-0.100000)"
fill="#000000" stroke="none">
<path d="M0 1505 l0 -445 75 0 75 0 0 316 0 316 74 -96 74 -97 69 90 c37 50
70 91 73 91 3 0 6 -132 5 -292 0 -161 2 -301 4 -310 3 -15 15 -18 72 -18 68 0
69 0 70 28 0 36 0 742 0 810 l-1 52 -72 0 -73 0 -73 -96 -73 -95 -37 48 c-20
26 -38 50 -42 53 -3 3 -20 24 -39 48 l-33 42 -74 0 -74 0 0 -445z"/>
<path d="M2485 1495 l0 -445 72 0 73 0 1 33 c0 17 1 168 2 335 l0 303 56 -55
c31 -30 80 -77 109 -104 l52 -50 0 -231 0 -231 75 0 74 0 0 445 0 445 -75 0
-74 0 0 -105 0 -106 -107 105 -108 106 -75 0 -75 0 0 -445z"/>
<path d="M1102 1804 c-90 -24 -158 -79 -199 -163 -37 -74 -39 -191 -7 -262 31
-66 86 -123 152 -155 49 -25 68 -29 137 -28 88 1 151 25 210 80 34 32 221 174
230 174 3 0 5 -6 5 -12 0 -7 11 -36 24 -63 97 -210 385 -246 525 -66 49 64 65
110 65 191 1 126 -61 228 -176 286 -51 26 -59 27 -240 30 l-188 3 0 -79 0 -80
-67 -49 c-38 -28 -71 -50 -75 -51 -4 0 -10 12 -14 28 -10 42 -48 103 -91 144
-75 73 -184 100 -291 72z m157 -182 c66 -49 84 -125 45 -191 -21 -36 -79 -71
-117 -71 -102 0 -175 113 -132 204 38 79 137 107 204 58z m741 8 c86 -46 103
-156 35 -224 -102 -102 -273 -3 -235 136 24 85 124 129 200 88z"/>
</g>
</svg>
