<?xml version="1.0" standalone="no"?>
<!DOCTYPE svg PUBLIC "-//W3C//DTD SVG 20010904//EN"
 "http://www.w3.org/TR/2001/REC-SVG-20010904/DTD/svg10.dtd">
<svg version="1.0" xmlns="http://www.w3.org/2000/svg"
 width="2176.000000pt" height="2176.000000pt" viewBox="0 0 2176.000000 2176.000000"
 preserveAspectRatio="xMidYMid meet">
<metadata>
Created by potrace 1.14, written by Peter Selinger 2001-2017
</metadata>
<g transform="translate(0.000000,2176.000000) scale(0.100000,-0.100000)"
fill="#000000" stroke="none">
<path d="M0 11032 l0 -3207 528 1 c290 1 530 2 535 3 4 0 7 1028 7 2283 l0
2282 25 -35 c13 -19 28 -38 32 -44 10 -12 104 -135 118 -153 6 -7 17 -22 26
-31 9 -10 18 -23 20 -29 2 -5 18 -27 35 -48 89 -109 184 -236 184 -244 0 -6 3
-10 8 -10 4 0 39 -41 77 -91 139 -181 220 -285 233 -299 7 -8 31 -40 53 -70
22 -30 48 -64 57 -75 10 -11 40 -49 67 -85 27 -36 54 -70 60 -76 5 -6 20 -25
33 -41 45 -60 60 -53 158 77 26 36 53 70 59 77 17 20 28 35 80 103 27 36 52
67 55 70 4 3 33 41 66 85 32 44 67 89 77 100 10 11 90 115 179 230 89 116 165
212 168 215 3 3 28 34 55 70 27 36 52 67 55 70 4 4 73 89 92 115 40 52 78 95
79 88 0 -4 1 -1027 2 -2273 l2 -2265 525 0 526 0 0 3207 0 3208 -526 0 -527 0
-26 -30 c-15 -16 -25 -30 -22 -30 4 0 -8 -15 -24 -32 -17 -18 -31 -36 -31 -39
0 -3 -10 -18 -22 -32 -13 -14 -32 -38 -43 -52 -11 -15 -24 -32 -30 -38 -5 -7
-23 -30 -39 -52 -17 -22 -32 -42 -35 -45 -4 -3 -28 -34 -56 -70 -27 -36 -58
-74 -67 -84 -10 -11 -18 -23 -18 -27 0 -5 -8 -16 -18 -26 -15 -15 -43 -50 -94
-118 -5 -5 -36 -46 -71 -90 -34 -44 -117 -150 -182 -235 -126 -163 -229 -296
-268 -344 l-24 -29 -44 55 c-24 30 -55 70 -69 88 -14 18 -43 56 -66 84 -23 28
-96 121 -162 206 -67 85 -131 164 -142 175 -11 12 -20 26 -20 32 0 6 -4 13 -9
15 -8 3 -79 90 -161 198 -26 35 -51 65 -72 90 -7 8 -25 31 -41 52 -15 21 -36
48 -46 60 -11 13 -58 73 -106 133 -47 61 -100 127 -116 148 l-31 37 -534 0
-534 0 0 -3208z"/>
<path d="M17920 14155 c-4 -5 -4 -19 0 -30 4 -11 4 -29 0 -41 -5 -11 -5 -27 0
-34 4 -7 5 -24 1 -39 -5 -14 -5 -38 -1 -52 4 -15 4 -32 0 -39 -4 -7 -4 -27 0
-46 4 -19 4 -36 0 -39 -5 -3 -5 -18 0 -34 4 -15 4 -34 0 -41 -4 -7 -4 -25 0
-40 4 -15 4 -33 0 -40 -4 -6 -4 -27 0 -46 4 -19 4 -36 0 -39 -5 -3 -5 -18 0
-34 4 -15 4 -34 0 -41 -4 -7 -4 -25 0 -40 4 -15 4 -33 0 -40 -4 -6 -4 -27 0
-46 4 -19 4 -36 0 -39 -5 -3 -5 -18 0 -34 4 -15 4 -34 0 -41 -4 -7 -4 -25 0
-40 4 -15 4 -33 0 -40 -4 -6 -4 -27 0 -46 4 -19 4 -36 0 -39 -5 -3 -5 -18 0
-34 4 -15 4 -34 0 -41 -4 -7 -4 -25 0 -40 4 -15 4 -33 0 -40 -4 -6 -4 -27 0
-46 4 -19 4 -36 0 -39 -5 -3 -5 -18 0 -34 4 -15 4 -34 0 -41 -4 -7 -4 -25 0
-40 4 -15 4 -33 0 -40 -4 -6 -4 -27 0 -46 4 -19 4 -36 0 -39 -5 -3 -5 -18 0
-34 4 -15 4 -34 0 -41 -4 -7 -4 -25 0 -40 4 -15 4 -33 0 -40 -4 -6 -4 -27 0
-46 4 -19 4 -36 0 -39 -5 -3 -5 -18 0 -34 4 -15 4 -34 0 -41 -4 -7 -4 -25 0
-40 4 -15 4 -33 0 -40 -4 -6 -4 -27 0 -46 4 -19 4 -36 0 -39 -5 -3 -5 -18 0
-34 4 -15 4 -34 0 -41 -4 -7 -4 -25 0 -40 4 -15 4 -33 0 -40 -4 -6 -4 -27 0
-46 4 -19 4 -36 0 -39 -5 -3 -5 -18 0 -34 4 -15 4 -34 0 -41 -4 -7 -4 -25 0
-40 4 -15 4 -33 0 -40 -4 -6 -4 -27 0 -46 4 -19 4 -34 0 -34 -4 0 -4 -16 0
-35 4 -19 4 -37 0 -40 -4 -3 -4 -20 0 -39 4 -19 4 -39 0 -46 -4 -7 -4 -27 0
-46 4 -19 4 -36 0 -39 -5 -3 -5 -18 0 -34 4 -15 4 -34 0 -41 -4 -6 -4 -27 0
-46 4 -19 4 -36 0 -39 -5 -3 -5 -18 0 -34 4 -15 4 -34 0 -41 -4 -7 -4 -25 0
-40 4 -15 4 -33 0 -40 -4 -6 -4 -27 0 -46 4 -19 4 -36 0 -39 -5 -3 -5 -18 0
-34 4 -15 4 -34 0 -41 -4 -7 -4 -25 0 -40 4 -15 4 -33 0 -40 -4 -6 -4 -27 0
-46 4 -19 4 -36 0 -39 -5 -3 -5 -18 0 -34 4 -15 4 -34 0 -41 -4 -7 -4 -25 0
-40 4 -15 4 -33 0 -40 -4 -6 -4 -27 0 -46 4 -19 4 -36 0 -39 -5 -3 -5 -18 0
-34 4 -15 4 -34 0 -41 -4 -7 -4 -25 0 -40 4 -15 4 -33 0 -40 -4 -6 -4 -27 0
-46 4 -19 4 -36 0 -39 -5 -3 -5 -18 0 -34 4 -15 4 -34 0 -41 -4 -7 -4 -25 0
-40 4 -15 4 -33 0 -40 -4 -6 -4 -27 0 -46 4 -19 4 -36 0 -39 -5 -3 -5 -18 0
-34 4 -15 4 -34 0 -41 -4 -7 -4 -25 0 -40 4 -15 4 -33 0 -40 -4 -6 -4 -27 0
-46 4 -19 4 -36 0 -39 -5 -3 -5 -18 0 -34 4 -15 4 -34 0 -41 -4 -7 -4 -25 0
-40 4 -15 4 -33 0 -40 -4 -6 -4 -27 0 -46 4 -19 4 -36 0 -39 -5 -3 -5 -18 0
-34 4 -15 4 -34 0 -41 -4 -7 -4 -25 0 -40 4 -15 4 -33 0 -40 -4 -6 -4 -27 0
-46 4 -19 4 -36 0 -39 -5 -3 -5 -18 0 -34 4 -15 4 -34 0 -41 -4 -7 -4 -25 0
-40 4 -15 4 -33 0 -40 -4 -6 -4 -27 0 -46 4 -19 4 -36 0 -39 -5 -3 -5 -18 0
-34 4 -15 4 -34 0 -41 -4 -7 -4 -25 0 -40 4 -15 4 -33 0 -40 -4 -7 -4 -25 0
-40 4 -15 4 -33 0 -40 -4 -7 -4 -25 0 -40 4 -15 4 -33 0 -40 -4 -6 -4 -27 0
-46 4 -19 4 -36 0 -39 -5 -3 -5 -18 0 -34 4 -15 4 -34 0 -41 -4 -7 -4 -25 0
-40 4 -15 4 -33 0 -40 -4 -6 -4 -27 0 -46 4 -19 4 -36 0 -39 -5 -3 -5 -18 0
-34 4 -15 4 -34 0 -41 -4 -7 -4 -25 0 -40 4 -15 4 -33 0 -40 -4 -6 -4 -27 0
-46 4 -19 4 -36 0 -39 -5 -3 -5 -18 0 -34 4 -15 4 -34 0 -41 -4 -7 -4 -25 0
-40 4 -15 4 -33 0 -40 -4 -6 -4 -27 0 -45 4 -18 4 -39 0 -46 -5 -7 -5 -22 0
-34 5 -12 5 -28 0 -35 -4 -7 -4 -25 0 -40 4 -15 4 -33 0 -40 -4 -6 -4 -27 0
-46 4 -18 5 -35 2 -38 -3 -4 236 -6 531 -6 l537 0 0 2412 c0 1326 2 2413 4
2416 3 2 74 -64 158 -146 339 -333 430 -421 586 -571 90 -86 192 -183 227
-216 131 -124 370 -351 406 -385 20 -19 70 -67 111 -105 75 -71 95 -100 77
-110 -5 -4 -6 -12 -2 -18 10 -16 10 -118 1 -139 -5 -9 -5 -19 -1 -21 10 -6 9
-130 -1 -145 -3 -6 -3 -13 1 -15 10 -6 9 -130 -1 -145 -3 -6 -3 -13 1 -15 10
-6 9 -130 -1 -145 -3 -6 -3 -13 1 -15 10 -6 9 -130 -1 -145 -3 -6 -3 -13 1
-15 10 -6 9 -130 -1 -145 -3 -6 -3 -13 1 -15 10 -6 9 -130 -1 -145 -3 -6 -3
-13 1 -15 10 -6 9 -130 -1 -145 -3 -6 -3 -13 1 -15 10 -6 9 -130 -1 -145 -3
-6 -3 -13 1 -15 10 -6 9 -130 -1 -145 -3 -6 -3 -13 1 -15 10 -6 9 -130 -1
-145 -3 -6 -3 -13 1 -15 10 -6 9 -130 -1 -145 -3 -6 -3 -13 1 -15 10 -6 9
-130 -1 -145 -3 -6 -3 -13 1 -15 10 -6 9 -130 -1 -145 -3 -6 -3 -13 1 -15 10
-6 9 -130 -1 -145 -3 -6 -3 -13 1 -15 10 -6 9 -130 -1 -145 -3 -6 -3 -13 1
-15 10 -6 9 -130 -1 -145 -3 -6 -3 -13 1 -15 10 -6 9 -130 -1 -145 -3 -6 -3
-13 1 -15 10 -6 9 -130 -1 -145 -3 -6 -3 -13 1 -15 5 -3 7 -57 7 -121 l-1
-116 533 0 534 0 0 98 c3 924 0 6304 -3 6309 -3 5 -243 8 -534 8 l-528 0 -1
-36 c-1 -20 -4 -41 -8 -47 -3 -6 -3 -13 1 -15 10 -6 9 -130 -1 -145 -3 -6 -3
-13 1 -15 10 -6 9 -130 -1 -145 -3 -6 -3 -13 1 -15 10 -6 9 -130 -1 -145 -3
-6 -3 -13 1 -15 10 -6 9 -130 -1 -145 -3 -6 -3 -13 1 -15 10 -6 9 -130 -1
-145 -3 -6 -3 -13 1 -15 10 -6 9 -130 -1 -145 -3 -6 -3 -13 1 -15 7 -5 9 -116
3 -142 -1 -5 -1 -12 0 -15 5 -13 4 -290 -1 -290 -3 0 -42 35 -87 78 -44 42
-149 142 -233 222 -83 80 -180 172 -213 205 -34 33 -165 159 -291 280 -125
121 -256 247 -290 280 -34 33 -148 143 -254 245 -106 101 -194 187 -197 189
-10 10 -1066 6 -1074 -4z"/>
<path d="M8510 13280 c0 -3 -42 -6 -93 -7 -50 0 -112 -4 -137 -7 -25 -3 -63
-8 -85 -11 -22 -2 -51 -7 -65 -10 -14 -3 -36 -8 -49 -11 -22 -4 -73 -17 -182
-44 -32 -8 -177 -59 -219 -77 -8 -3 -17 -7 -20 -8 -3 -1 -23 -10 -45 -20 -22
-10 -42 -19 -45 -20 -52 -11 -426 -250 -452 -289 -4 -6 -8 -8 -8 -5 0 15 -121
-102 -302 -293 -14 -15 -24 -28 -21 -28 3 0 -5 -11 -19 -25 -42 -41 -173 -243
-232 -355 -113 -217 -195 -466 -231 -700 -15 -101 -20 -192 -19 -355 0 -190 8
-294 30 -395 5 -19 8 -39 9 -45 1 -5 7 -33 14 -61 7 -29 14 -58 15 -65 2 -8 6
-21 9 -29 3 -8 12 -35 18 -60 15 -55 14 -51 24 -75 4 -11 21 -55 37 -97 31
-83 131 -283 154 -309 8 -8 14 -19 14 -23 0 -15 114 -177 190 -271 58 -71 281
-286 355 -342 96 -73 249 -173 263 -173 6 0 12 -3 14 -7 4 -10 197 -104 273
-133 33 -12 69 -26 80 -31 37 -14 120 -38 220 -63 117 -29 165 -37 305 -52 95
-10 339 -11 449 0 81 7 94 9 151 21 14 2 41 7 60 10 19 4 53 10 75 16 22 5 49
12 61 14 33 7 234 74 273 91 143 60 419 212 429 236 2 5 8 8 13 8 6 0 15 5 22
10 7 6 37 30 67 53 30 23 69 53 85 67 53 44 275 271 275 280 0 6 5 10 10 10 6
0 16 5 23 10 12 11 218 165 265 198 13 9 42 31 65 48 23 17 78 57 122 89 44
33 82 63 83 67 2 4 8 8 13 8 8 0 29 15 124 88 6 4 26 19 45 32 19 13 40 28 45
33 11 9 296 218 435 319 47 34 119 87 161 119 l76 56 26 -116 c35 -151 33
-144 58 -220 29 -88 94 -249 126 -308 56 -106 68 -128 78 -135 6 -4 7 -8 2 -8
-7 0 104 -167 147 -222 11 -14 32 -41 46 -59 27 -37 247 -259 295 -299 16 -14
61 -48 100 -77 38 -29 75 -57 82 -63 7 -5 14 -10 17 -10 2 0 32 -18 65 -40 33
-22 64 -40 70 -40 5 0 11 -3 13 -7 4 -11 184 -98 266 -129 37 -14 76 -30 87
-35 60 -26 331 -93 430 -105 203 -24 506 -25 635 0 8 1 38 6 65 10 129 20 349
84 488 142 93 39 242 115 245 125 2 5 12 9 23 9 10 0 19 5 19 10 0 6 7 10 15
10 8 0 15 4 15 8 0 5 11 14 24 20 77 35 327 238 420 341 17 19 42 46 55 60 12
14 39 46 60 70 20 24 41 49 46 55 16 17 140 207 165 251 60 108 125 246 155
330 9 28 24 64 31 82 8 17 14 40 14 50 0 10 5 24 12 31 7 7 9 12 6 12 -4 0 -2
15 3 33 6 17 12 43 15 57 3 14 10 43 15 65 5 22 12 56 15 75 2 19 7 46 10 60
29 140 23 511 -11 690 -4 19 -9 46 -12 60 -2 14 -13 61 -24 105 -25 98 -25 96
-31 115 -3 8 -16 44 -28 80 -12 36 -28 81 -36 100 -9 19 -19 44 -23 55 -37 92
-167 330 -213 390 -5 6 -36 46 -69 90 -33 44 -75 96 -92 115 -43 49 -137 149
-137 146 0 -1 -24 20 -54 48 -29 28 -62 58 -72 66 -73 58 -111 87 -130 100
-106 72 -166 110 -173 110 -5 0 -11 4 -13 8 -9 23 -312 158 -453 202 -69 21
-84 25 -126 35 -11 2 -28 6 -37 9 -9 3 -30 8 -47 11 -16 2 -41 7 -55 10 -14 3
-43 7 -65 10 -22 3 -57 8 -77 11 -21 2 -78 7 -128 9 -49 2 -94 7 -100 10 -5 3
-10 2 -10 -3 0 -6 -14 -7 -35 -2 -19 4 -35 5 -35 1 0 -8 -208 -6 -216 2 -4 3
-14 2 -23 -3 -10 -5 -23 -5 -31 0 -8 5 -21 5 -30 0 -9 -5 -22 -5 -30 0 -7 4
-23 5 -35 0 -12 -5 -27 -5 -34 -1 -6 4 -31 5 -55 1 -24 -3 -51 -3 -62 0 -10 4
-31 4 -46 -1 -16 -4 -28 -4 -28 1 0 4 -15 4 -34 0 -19 -4 -40 -4 -47 1 -7 4
-20 4 -30 -1 -9 -5 -19 -7 -22 -3 -8 7 -207 10 -207 3 0 -7 -69 -4 -76 3 -3 3
-17 2 -30 -3 -14 -6 -26 -6 -29 0 -3 5 -15 6 -28 1 -12 -5 -34 -5 -49 0 -15 4
-30 4 -33 -1 -3 -5 -13 -6 -21 -3 -20 7 -214 10 -214 2 0 -6 -70 -2 -77 5 -3
2 -18 0 -34 -4 -16 -5 -29 -5 -29 0 0 4 -15 4 -34 0 -19 -4 -40 -4 -47 1 -7 4
-20 4 -29 -1 -9 -5 -22 -5 -28 -1 -7 4 -35 5 -62 1 -27 -4 -55 -3 -62 1 -6 4
-19 4 -28 -1 -9 -5 -22 -5 -30 0 -8 5 -21 5 -30 0 -9 -5 -22 -5 -30 0 -8 5
-21 5 -31 0 -9 -5 -19 -6 -23 -3 -11 11 -79 4 -87 -9 -4 -6 -4 -19 1 -28 5 -9
5 -22 0 -29 -4 -8 -5 -25 -1 -40 7 -28 6 -90 -3 -98 -2 -3 -1 -15 4 -28 5 -13
6 -26 3 -29 -7 -7 -8 -130 -1 -142 3 -5 2 -18 -2 -29 -4 -11 -4 -29 0 -41 5
-11 5 -27 0 -34 -4 -7 -4 -25 0 -41 5 -15 6 -30 3 -33 -5 -5 -7 -125 -3 -143
1 -5 1 -12 0 -18 -5 -22 -2 -114 5 -124 3 -6 2 -11 -4 -11 -6 0 -6 -11 -1 -30
5 -17 5 -30 0 -30 -5 0 -5 -13 0 -30 5 -17 5 -30 0 -30 -5 0 -5 -13 0 -30 5
-16 5 -30 1 -30 -4 0 -6 -13 -3 -29 3 -25 -3 -34 -55 -72 -32 -24 -62 -47 -68
-52 -5 -4 -57 -42 -115 -85 -58 -42 -106 -80 -108 -84 -2 -5 -8 -8 -12 -8 -5
0 -65 -42 -134 -92 -69 -51 -168 -124 -221 -163 -54 -38 -102 -74 -108 -80
-37 -32 -128 -95 -137 -95 -5 0 -10 -3 -10 -7 0 -5 -17 -19 -37 -33 -20 -14
-43 -31 -50 -39 -8 -7 -16 -12 -18 -10 -2 3 -12 47 -23 99 -28 132 -47 199
-88 315 -36 100 -167 376 -188 398 -7 7 -26 36 -44 65 -18 30 -42 63 -52 75
-11 11 -20 24 -20 28 0 7 -32 47 -125 158 -102 122 -304 298 -460 400 -83 54
-335 191 -370 201 -5 1 -20 6 -31 10 -158 60 -374 120 -494 135 -25 3 -61 8
-80 11 -19 3 -73 7 -120 9 -47 2 -85 4 -85 5 0 1 -17 2 -38 3 -20 1 -37 0 -37
-3z m274 -1255 c195 -51 341 -137 489 -288 53 -54 97 -105 97 -113 0 -8 4 -14
8 -14 5 0 15 -12 23 -27 8 -16 17 -30 20 -33 5 -4 71 -138 75 -150 0 -3 3 -12
7 -20 16 -40 35 -109 42 -150 4 -25 9 -54 12 -65 8 -38 10 -190 3 -250 -12
-94 -19 -124 -50 -215 -80 -240 -263 -458 -490 -582 -47 -26 -171 -77 -199
-83 -9 -1 -36 -8 -61 -15 -25 -7 -65 -14 -90 -17 -59 -6 -237 -6 -275 0 -87
15 -110 20 -132 28 -13 5 -27 8 -31 7 -8 -1 -23 4 -107 41 -63 27 -169 85
-185 101 -3 3 -23 19 -45 35 -36 26 -144 133 -170 167 -85 112 -170 282 -191
383 -2 11 -7 31 -10 45 -14 62 -18 113 -18 215 -1 146 9 212 50 335 118 352
430 617 804 684 118 21 304 13 424 -19z m5376 15 c73 -15 152 -40 168 -53 6
-5 12 -6 12 -2 0 7 180 -86 203 -105 7 -5 41 -33 77 -62 36 -29 72 -62 82 -73
9 -11 30 -36 48 -55 58 -64 194 -290 175 -290 -3 0 1 -13 10 -29 8 -17 17 -40
19 -53 3 -13 5 -23 6 -23 1 0 10 -39 19 -87 49 -248 -8 -522 -155 -749 -72
-110 -218 -252 -313 -304 -20 -11 -38 -22 -41 -25 -6 -6 -101 -55 -109 -56 -3
0 -19 -6 -36 -13 -142 -59 -354 -80 -523 -54 -90 14 -262 69 -274 87 -4 6 -8
7 -8 3 0 -9 -73 31 -140 77 -178 123 -310 294 -384 497 -15 41 -28 83 -30 94
-3 11 -10 43 -16 70 -7 28 -13 103 -15 168 -6 233 62 451 199 637 49 67 190
207 217 215 10 4 19 10 19 13 0 4 17 16 38 27 20 11 39 22 42 26 4 4 45 24
160 78 8 4 26 4 40 1 14 -4 37 -3 52 1 16 4 30 3 34 -2 9 -15 34 10 27 27 -3
8 -4 14 -2 14 30 3 85 13 87 15 9 8 263 -4 312 -15z"/>
</g>
</svg>
